<svg data-v-423bf9ae="" xmlns="http://www.w3.org/2000/svg" viewBox="0 0 1747.7809491597222 193" class="fontAboveSlogan"><!----><!----><!----><g data-v-423bf9ae="" id="d7b06dd4-341b-4996-9ca2-5ed8fd256ae0" fill="white" transform="matrix(10.781671524047852,0,0,10.781671524047852,622.7509155273438,-17.433208465576172)"><path d="M0.91 2.80L0.91 12.60L4.34 12.60C5.43 12.60 6.32 12.36 7 11.87C7.68 11.39 8.02 10.65 8.02 9.66C8.02 8.58 7.43 7.80 6.24 7.34C7.06 6.98 7.46 6.36 7.46 5.46C7.46 4.62 7.17 3.97 6.57 3.50C5.98 3.03 5.14 2.80 4.06 2.80ZM2.87 6.58L2.87 4.55L4.06 4.55C5.02 4.55 5.50 4.88 5.50 5.53C5.50 6.23 5.02 6.58 4.06 6.58ZM2.87 8.26L4.34 8.26C4.85 8.26 5.27 8.37 5.59 8.60C5.90 8.82 6.06 9.15 6.06 9.59C6.06 10.43 5.49 10.85 4.34 10.85L2.87 10.85ZM8.86 9.38C8.86 10.44 9.23 11.28 9.96 11.89C10.69 12.50 11.58 12.81 12.61 12.81C13.65 12.81 14.53 12.50 15.27 11.89C16.00 11.28 16.37 10.44 16.37 9.38C16.37 8.32 16.00 7.48 15.27 6.87C14.53 6.26 13.65 5.95 12.61 5.95C11.58 5.95 10.69 6.26 9.96 6.87C9.23 7.48 8.86 8.32 8.86 9.38ZM10.77 9.38C10.77 8.84 10.93 8.40 11.27 8.06C11.61 7.73 12.05 7.56 12.61 7.56C13.17 7.56 13.62 7.73 13.96 8.06C14.29 8.40 14.46 8.84 14.46 9.38C14.46 9.92 14.29 10.36 13.96 10.70C13.62 11.03 13.17 11.20 12.61 11.20C12.05 11.20 11.61 11.03 11.27 10.70C10.93 10.36 10.77 9.92 10.77 9.38ZM16.93 9.38C16.93 10.44 17.29 11.28 18.03 11.89C18.76 12.50 19.64 12.81 20.68 12.81C21.71 12.81 22.60 12.50 23.33 11.89C24.06 11.28 24.43 10.44 24.43 9.38C24.43 8.32 24.06 7.48 23.33 6.87C22.60 6.26 21.71 5.95 20.68 5.95C19.64 5.95 18.76 6.26 18.03 6.87C17.29 7.48 16.93 8.32 16.93 9.38ZM18.83 9.38C18.83 8.84 19.00 8.40 19.33 8.06C19.67 7.73 20.12 7.56 20.68 7.56C21.24 7.56 21.69 7.73 22.02 8.06C22.36 8.40 22.53 8.84 22.53 9.38C22.53 9.92 22.36 10.36 22.02 10.70C21.69 11.03 21.24 11.20 20.68 11.20C20.12 11.20 19.67 11.03 19.33 10.70C19.00 10.36 18.83 9.92 18.83 9.38ZM25.55 1.68L25.55 12.60L27.44 12.60L27.44 9.25L30.10 12.60L32.48 12.60L29.47 8.82L32.20 6.16L29.76 6.16L27.44 8.43L27.44 1.68ZM37.42 8.62L34.30 8.62C34.37 8.22 34.57 7.91 34.89 7.69C35.21 7.46 35.56 7.35 35.95 7.35C36.81 7.35 37.30 7.77 37.42 8.62ZM34.29 9.87L39.38 9.87C39.40 9.69 39.41 9.49 39.41 9.25C39.41 8.25 39.10 7.44 38.47 6.85C37.85 6.25 37.01 5.95 35.95 5.95C34.88 5.95 34.01 6.27 33.34 6.92C32.67 7.57 32.34 8.39 32.34 9.38C32.34 10.38 32.66 11.19 33.30 11.81C33.94 12.43 34.82 12.74 35.95 12.74C37.59 12.74 38.71 12.10 39.33 10.82L37.53 10.42C37.24 10.99 36.72 11.27 35.95 11.27C35 11.27 34.44 10.80 34.29 9.87ZM44.72 8.15L45.68 6.64C45.34 6.22 44.82 6.01 44.13 6.01C43.49 6.01 42.95 6.35 42.49 7.03L42.49 6.16L40.53 6.16L40.53 12.60L42.49 12.60L42.49 9.02C42.49 8.57 42.58 8.26 42.76 8.09C42.95 7.91 43.24 7.83 43.64 7.83C44.06 7.83 44.42 7.93 44.72 8.15Z"></path></g><!----><!----><g data-v-423bf9ae="" id="7d232c7d-fd77-4411-8031-6dd275b30186" fill="white" transform="matrix(5.763689041137695,0,0,5.763689041137695,-1.6138272285461426,113.97982025146484)"><path d="M0.28 3.68L0.28 3.68Q0.28 3.64 0.30 3.60Q0.32 3.56 0.41 3.50Q0.50 3.44 0.64 3.44L0.64 3.44L1.02 3.44Q1.36 3.44 2.11 3.49Q2.86 3.53 4.06 3.53L4.06 3.53Q5.05 3.53 5.82 3.49Q6.59 3.46 7.24 3.46L7.24 3.46Q7.48 3.46 7.48 3.79L7.48 3.79Q7.48 3.92 7.45 4.11Q7.42 4.30 7.36 4.61Q7.31 4.93 7.28 5.22L7.28 5.22Q7.25 5.50 7.07 5.50L7.07 5.50Q6.87 5.50 6.87 5.22L6.87 5.22Q6.87 4.30 6.23 4.26L6.23 4.26Q4.12 4.09 3.71 4.09L3.71 4.09Q3.08 4.09 2.93 4.24Q2.79 4.40 2.77 4.87L2.77 4.87Q2.77 4.94 2.77 4.98L2.77 4.98Q2.73 5.74 2.73 7.32L2.73 7.32Q2.73 8.01 2.98 8.02L2.98 8.02Q3.05 8.02 3.17 8.03Q3.29 8.04 3.33 8.04L3.33 8.04Q3.43 8.04 3.63 8.03Q3.82 8.02 3.93 8.02L3.93 8.02L4.37 8.02Q5.21 8.02 5.48 7.97Q5.75 7.92 5.98 7.77L5.98 7.77Q6.10 7.69 6.17 7.57Q6.24 7.46 6.27 7.31Q6.30 7.15 6.34 7.08Q6.38 7.01 6.51 7.01Q6.64 7.01 6.66 7.06Q6.69 7.10 6.69 7.24L6.69 7.24Q6.69 7.34 6.63 7.73Q6.57 8.12 6.57 8.40L6.57 8.40Q6.57 8.67 6.62 9.05Q6.66 9.44 6.66 9.55L6.66 9.55Q6.66 9.77 6.62 9.83Q6.57 9.90 6.47 9.90L6.47 9.90Q6.23 9.90 6.17 9.55L6.17 9.55Q6.17 9.52 6.16 9.42Q6.15 9.32 6.14 9.28Q6.13 9.24 6.10 9.16Q6.08 9.09 6.05 9.04Q6.02 9.00 5.98 8.95Q5.94 8.90 5.87 8.88L5.87 8.88Q5.67 8.79 5.17 8.74Q4.66 8.68 4.51 8.68L4.51 8.68L3.29 8.68Q2.72 8.68 2.72 8.95L2.72 8.95Q2.72 9.35 2.70 9.96Q2.69 10.57 2.69 10.96L2.69 10.96Q2.69 11.06 2.68 11.25Q2.67 11.44 2.67 11.52L2.67 11.52Q2.67 11.80 2.73 12.08Q2.79 12.36 3.06 12.67Q3.33 12.98 3.79 12.98L3.79 12.98Q4.21 12.98 4.21 13.23L4.21 13.23Q4.21 13.27 4.19 13.33Q4.16 13.38 4.05 13.44Q3.95 13.50 3.78 13.50L3.78 13.50Q3.56 13.50 3.07 13.44Q2.59 13.38 2.42 13.38L2.42 13.38Q2.03 13.38 1.55 13.43Q1.06 13.47 0.73 13.47L0.73 13.47Q0.45 13.47 0.45 13.31L0.45 13.31Q0.45 13.13 0.51 13.09Q0.57 13.05 1.05 12.88L1.05 12.88Q1.41 12.75 1.50 12.13Q1.58 11.51 1.60 9.60L1.60 9.60Q1.60 8.86 1.60 8.44L1.60 8.44Q1.60 8.06 1.62 7.26Q1.64 6.45 1.64 6.01L1.64 6.01L1.64 5.19Q1.64 4.27 0.98 3.96L0.98 3.96Q0.88 3.92 0.74 3.90Q0.60 3.88 0.51 3.88Q0.42 3.88 0.35 3.83Q0.28 3.78 0.28 3.68ZM15.04 3.71L15.04 3.71Q15.04 3.50 15.43 3.50L15.43 3.50Q15.57 3.50 16.07 3.53Q16.58 3.56 17.01 3.56L17.01 3.56Q17.28 3.56 17.52 3.54Q17.77 3.53 18.24 3.53L18.24 3.53Q18.62 3.53 18.62 3.72L18.62 3.72Q18.62 3.84 17.98 4.10L17.98 4.10Q17.53 4.28 17.53 5.71L17.53 5.71Q17.53 7.60 17.51 9.05Q17.49 10.50 17.49 10.89L17.49 10.89Q17.49 12.07 17.84 12.59L17.84 12.59Q18.14 13.02 18.51 13.02L18.51 13.02Q18.54 13.02 18.65 13.03Q18.76 13.03 18.79 13.03L18.79 13.03Q18.89 13.03 18.98 13.08Q19.08 13.13 19.08 13.19L19.08 13.19Q19.08 13.34 19.00 13.39Q18.93 13.44 18.73 13.44L18.73 13.44Q18.31 13.44 17.96 13.41Q17.60 13.38 17.40 13.38L17.40 13.38Q17.01 13.38 16.55 13.42Q16.09 13.45 15.86 13.45L15.86 13.45Q15.23 13.45 15.23 13.24L15.23 13.24Q15.23 13.12 15.37 13.07Q15.50 13.02 15.67 13.00Q15.83 12.98 16.02 12.82Q16.20 12.66 16.27 12.35L16.27 12.35Q16.30 12.25 16.36 10.76Q16.42 9.27 16.42 8.61L16.42 8.61L16.42 7.81Q16.42 7.63 16.43 7.12Q16.44 6.61 16.44 6.30L16.44 6.30L16.44 5.66Q16.44 5.04 16.38 4.63L16.38 4.63Q16.34 4.30 16.01 4.12Q15.68 3.93 15.33 3.92L15.33 3.92Q15.04 3.91 15.04 3.71ZM26.63 3.77L26.63 3.77Q26.63 3.68 26.73 3.60Q26.82 3.53 26.98 3.53L26.98 3.53Q27.06 3.53 27.26 3.54Q27.45 3.54 27.51 3.54L27.51 3.54Q27.72 3.54 27.90 3.53Q28.08 3.51 28.20 3.51L28.20 3.51Q28.32 3.51 28.49 3.59Q28.66 3.67 28.69 3.75L28.69 3.75Q28.71 3.79 28.84 3.94Q28.97 4.09 29.18 4.33Q29.39 4.56 29.55 4.79L29.55 4.79Q31.46 7.27 34.65 10.77L34.65 10.77Q34.73 10.86 34.85 10.99Q34.97 11.12 35.02 11.18Q35.07 11.24 35.13 11.30Q35.18 11.35 35.22 11.38Q35.25 11.40 35.28 11.40L35.28 11.40Q35.42 11.40 35.42 10.53L35.42 10.53L35.42 8.89Q35.42 7.95 35.41 7.31Q35.41 6.66 35.40 6.38Q35.39 6.09 35.39 6.02L35.39 6.02L35.39 5.92Q35.39 5.45 35.33 5.11Q35.27 4.77 35.18 4.59Q35.10 4.41 34.94 4.28Q34.78 4.16 34.66 4.12Q34.55 4.09 34.34 4.05Q34.13 4.00 34.05 3.98L34.05 3.98Q33.77 3.89 33.77 3.74L33.77 3.74Q33.77 3.53 34.03 3.53L34.03 3.53Q34.12 3.53 34.71 3.54Q35.29 3.54 35.36 3.54L35.36 3.54Q35.70 3.54 36.11 3.53Q36.53 3.51 36.62 3.51L36.62 3.51Q36.86 3.51 36.95 3.56Q37.04 3.61 37.04 3.75L37.04 3.75Q37.04 3.81 36.97 3.86Q36.89 3.91 36.81 3.94Q36.72 3.98 36.64 4.00L36.64 4.00L36.55 4.03Q36.09 4.28 36.09 5.61L36.09 5.61L36.09 6.15Q36.09 7.21 36.02 9.83Q35.94 12.46 35.94 13.08L35.94 13.08L35.94 13.36Q35.94 13.68 35.74 13.68L35.74 13.68Q35.62 13.68 35.52 13.58L35.52 13.58Q30.87 8.19 29.97 7.17Q29.06 6.16 28.97 6.16L28.97 6.16Q28.83 6.16 28.83 7.11L28.83 7.11Q28.83 8.44 28.77 9.97Q28.71 11.51 28.71 11.65L28.71 11.65Q28.71 12.28 28.93 12.61Q29.15 12.94 29.40 12.98Q29.65 13.02 29.87 13.07Q30.09 13.12 30.09 13.26L30.09 13.26Q30.09 13.41 30.04 13.45Q29.99 13.50 29.86 13.50L29.86 13.50Q29.76 13.50 29.42 13.48Q29.08 13.47 28.36 13.47L28.36 13.47Q28.24 13.47 27.85 13.48Q27.45 13.50 27.17 13.50L27.17 13.50Q26.87 13.50 26.87 13.27L26.87 13.27Q26.87 13.15 27.05 13.11Q27.23 13.08 27.50 12.89Q27.76 12.71 27.90 12.21L27.90 12.21Q27.99 11.89 28.11 9.60Q28.24 7.32 28.24 6.45L28.24 6.45Q28.24 5.25 27.90 4.65Q27.57 4.06 26.81 3.98L26.81 3.98Q26.63 3.96 26.63 3.77ZM44.80 3.64L44.80 3.64Q44.80 3.51 44.92 3.49Q45.04 3.47 45.51 3.47L45.51 3.47L46.73 3.47Q47.08 3.47 48.02 3.44Q48.96 3.42 49.46 3.42L49.46 3.42Q50.43 3.42 51.39 3.71Q52.36 4.00 53.17 4.56Q53.98 5.11 54.49 6.00Q54.99 6.89 54.99 7.98L54.99 7.98Q54.99 8.96 54.86 9.68Q54.73 10.40 54.42 10.93Q54.11 11.45 53.80 11.78Q53.49 12.11 52.96 12.56L52.96 12.56Q52.54 12.89 51.74 13.19Q50.95 13.48 50.11 13.48L50.11 13.48Q50.02 13.48 48.68 13.45Q47.33 13.41 46.75 13.41L46.75 13.41Q46.26 13.41 45.84 13.45Q45.42 13.48 45.35 13.48L45.35 13.48Q45.01 13.48 45.01 13.30L45.01 13.30Q45.01 13.19 45.06 13.14Q45.11 13.09 45.27 13.05Q45.43 13.01 45.50 12.98L45.50 12.98Q45.72 12.88 45.91 12.61Q46.10 12.33 46.10 12.07L46.10 12.07Q46.10 11.28 46.11 10.07Q46.12 8.85 46.12 8.27L46.12 8.27Q46.12 7.77 46.11 6.70Q46.10 5.63 46.10 4.72L46.10 4.72Q46.10 4.48 45.87 4.23Q45.64 3.99 45.36 3.98L45.36 3.98Q45.16 3.96 45.07 3.95Q44.98 3.93 44.89 3.86Q44.80 3.78 44.80 3.64ZM47.28 11.47L47.28 11.47Q47.28 11.73 47.28 11.90Q47.29 12.07 47.34 12.21Q47.39 12.35 47.42 12.40Q47.45 12.46 47.59 12.53Q47.73 12.60 47.80 12.62Q47.88 12.64 48.13 12.71Q48.38 12.78 48.55 12.82L48.55 12.82Q49.04 12.96 49.57 12.96L49.57 12.96L49.85 12.96Q50.81 12.96 51.48 12.69Q52.15 12.42 52.77 11.83L52.77 11.83Q53.80 10.84 53.80 8.61L53.80 8.61Q53.80 7.49 53.36 6.58Q52.92 5.67 52.21 5.13Q51.49 4.59 50.67 4.30Q49.84 4.02 49 4.02L49 4.02Q48.62 4.02 48.45 4.02Q48.27 4.02 48.04 4.05Q47.81 4.09 47.73 4.11Q47.66 4.13 47.54 4.25Q47.43 4.37 47.41 4.45Q47.39 4.54 47.35 4.78Q47.32 5.03 47.32 5.21Q47.32 5.39 47.32 5.80L47.32 5.80Q47.32 6.10 47.31 7.24Q47.29 8.39 47.29 8.48L47.29 8.48Q47.29 9.32 47.28 10.30Q47.28 11.28 47.28 11.47ZM72.87 3.81L72.87 3.81Q72.87 3.65 73.03 3.61Q73.19 3.57 73.74 3.57L73.74 3.57Q73.82 3.57 74.12 3.58Q74.42 3.60 74.55 3.60L74.55 3.60Q74.70 3.60 75.12 3.59Q75.53 3.58 75.74 3.58L75.74 3.58Q76.44 3.58 76.44 3.75L76.44 3.75Q76.44 3.91 76.15 4.01Q75.85 4.12 75.85 4.24L75.85 4.24Q75.85 4.38 75.94 4.61Q76.03 4.83 76.13 4.97Q76.22 5.11 76.40 5.38Q76.58 5.64 76.61 5.70L76.61 5.70Q77.08 6.45 77.59 7.14Q78.11 7.83 78.18 7.83L78.18 7.83Q78.26 7.83 78.39 7.66Q78.51 7.50 78.74 7.13Q78.96 6.75 79.11 6.52L79.11 6.52Q79.16 6.45 79.32 6.22Q79.48 5.98 79.54 5.88Q79.60 5.78 79.73 5.58Q79.86 5.38 79.91 5.27Q79.97 5.17 80.05 5.02Q80.12 4.87 80.15 4.77Q80.18 4.68 80.18 4.59L80.18 4.59Q80.18 4.14 79.70 4.03L79.70 4.03Q79.65 4.02 79.54 4.00Q79.44 3.99 79.39 3.98Q79.34 3.96 79.27 3.93Q79.20 3.91 79.17 3.86Q79.14 3.81 79.14 3.74L79.14 3.74Q79.14 3.57 79.53 3.57L79.53 3.57Q79.60 3.57 79.79 3.58Q79.98 3.58 80.11 3.58L80.11 3.58Q80.43 3.58 80.89 3.59Q81.34 3.60 81.59 3.60L81.59 3.60Q82.28 3.60 82.28 3.81L82.28 3.81Q82.28 3.86 82.19 3.91Q82.11 3.95 81.96 4.02Q81.80 4.09 81.68 4.19L81.68 4.19Q81.10 4.63 79.99 6.31Q78.88 7.99 78.72 8.19L78.72 8.19Q78.50 8.47 78.44 8.81Q78.39 9.14 78.39 9.95L78.39 9.95Q78.39 10.14 78.39 10.73Q78.40 11.33 78.40 11.58L78.40 11.58L78.40 11.91Q78.40 12.38 78.56 12.64Q78.72 12.91 78.86 12.96Q79.00 13.01 79.14 13.01L79.14 13.01Q79.17 13.01 79.28 13.01Q79.39 13.02 79.42 13.02L79.42 13.02Q79.52 13.02 79.58 13.08Q79.63 13.15 79.63 13.22L79.63 13.22Q79.63 13.36 79.56 13.40Q79.49 13.44 79.30 13.44L79.30 13.44Q79.23 13.44 78.69 13.43Q78.15 13.43 77.90 13.43L77.90 13.43Q77.41 13.43 77 13.45Q76.59 13.48 76.36 13.48L76.36 13.48Q75.96 13.48 75.96 13.33L75.96 13.33Q75.96 13.20 76.04 13.15Q76.12 13.10 76.30 13.09Q76.48 13.08 76.57 13.05L76.57 13.05Q77.15 12.87 77.15 12.19L77.15 12.19Q77.15 12.11 77.16 11.92Q77.17 11.73 77.17 11.12Q77.18 10.50 77.18 9.35L77.18 9.35Q77.18 9.13 77.15 8.97Q77.11 8.81 77.06 8.65Q77.01 8.50 76.83 8.20Q76.64 7.91 76.45 7.64Q76.27 7.36 75.83 6.72Q75.39 6.08 74.98 5.46L74.98 5.46Q74.55 4.80 74.20 4.46Q73.85 4.12 73.66 4.05Q73.47 3.99 73.22 3.99L73.22 3.99Q72.87 3.99 72.87 3.81ZM89.77 8.69L89.77 8.69Q89.77 6.34 91.18 4.84Q92.60 3.33 95.19 3.33L95.19 3.33Q96.39 3.33 97.36 3.68Q98.32 4.03 98.88 4.54Q99.44 5.05 99.82 5.71Q100.20 6.37 100.34 6.92Q100.48 7.48 100.48 7.95L100.48 7.95Q100.48 9.86 99.74 11.16Q98.99 12.47 97.78 13.07Q96.57 13.66 94.99 13.66L94.99 13.66Q93.32 13.66 92.11 12.94Q90.90 12.21 90.34 11.10Q89.77 10.00 89.77 8.69ZM91 7.98L91 7.98Q91 8.54 91.15 9.19Q91.31 9.84 91.66 10.54Q92.01 11.23 92.50 11.78Q93.00 12.33 93.77 12.69Q94.53 13.05 95.44 13.05L95.44 13.05Q95.91 13.05 96.44 12.90Q96.96 12.75 97.48 12.45Q98 12.14 98.41 11.70Q98.81 11.26 99.07 10.62Q99.33 9.98 99.33 9.24L99.33 9.24Q99.33 6.71 98 5.30Q96.67 3.89 94.71 3.89L94.71 3.89Q93.17 3.89 92.09 4.93Q91 5.96 91 7.98ZM108.37 3.68L108.37 3.68Q108.37 3.61 108.39 3.58Q108.40 3.56 108.47 3.53Q108.54 3.50 108.70 3.50Q108.85 3.50 109.34 3.53Q109.83 3.56 110.28 3.56L110.28 3.56Q110.56 3.56 110.79 3.54Q111.02 3.53 111.59 3.53L111.59 3.53Q111.89 3.53 111.89 3.72L111.89 3.72Q111.89 3.85 111.79 3.88Q111.69 3.91 111.54 3.92Q111.40 3.93 111.25 4.02Q111.10 4.10 111.01 4.43Q110.91 4.76 110.91 5.32L110.91 5.32L110.91 5.71Q110.91 6.37 110.90 7.37Q110.89 8.37 110.89 8.74L110.89 8.74Q110.89 9.17 110.90 9.39Q110.91 9.62 110.94 10.04Q110.96 10.47 111.01 10.72Q111.06 10.96 111.17 11.32Q111.29 11.68 111.45 11.89Q111.61 12.10 111.85 12.35Q112.10 12.60 112.42 12.73Q112.74 12.87 113.18 12.96Q113.61 13.05 114.14 13.05L114.14 13.05Q114.59 13.05 114.84 13.03Q115.09 13.02 115.53 12.94Q115.98 12.87 116.23 12.72Q116.49 12.57 116.82 12.27Q117.15 11.97 117.33 11.54Q117.52 11.10 117.64 10.43Q117.77 9.76 117.77 8.90L117.77 8.90Q117.77 7.49 117.76 6.75Q117.75 6.01 117.75 5.94L117.75 5.94Q117.75 5.45 117.73 5.17Q117.71 4.89 117.59 4.55Q117.47 4.21 117.25 4.06L117.25 4.06Q117.11 3.96 116.89 3.93Q116.66 3.89 116.52 3.87Q116.38 3.85 116.38 3.75L116.38 3.75Q116.38 3.53 116.66 3.53L116.66 3.53Q116.75 3.53 117.21 3.54Q117.67 3.56 117.74 3.56L117.74 3.56Q118.08 3.56 118.45 3.54Q118.83 3.51 118.93 3.51L118.93 3.51Q119.22 3.51 119.22 3.70L119.22 3.70Q119.22 3.81 118.92 3.98Q118.62 4.16 118.55 4.30L118.55 4.30Q118.40 4.59 118.40 5.22L118.40 5.22Q118.40 5.32 118.41 5.62Q118.41 5.92 118.41 6.16L118.41 6.16Q118.41 8.85 118.19 10.28Q117.96 11.70 117.51 12.36Q117.05 13.01 116.14 13.40L116.14 13.40Q115.40 13.71 114.14 13.71L114.14 13.71Q111.80 13.71 110.82 12.81L110.82 12.81Q110.05 12.10 109.87 11.09Q109.69 10.09 109.69 7.64L109.69 7.64L109.69 7.41Q109.69 6.86 109.70 6.20Q109.72 5.54 109.72 5.39L109.72 5.39Q109.72 4.62 109.54 4.33Q109.35 4.05 108.68 3.95L108.68 3.95Q108.37 3.91 108.37 3.68ZM126.78 3.70L126.78 3.70Q126.78 3.47 127.19 3.47L127.19 3.47L129.51 3.47Q129.84 3.47 130.26 3.45Q130.68 3.43 130.91 3.43L130.91 3.43Q132.17 3.43 133.07 4.07Q133.97 4.70 133.97 5.78L133.97 5.78Q133.97 6.50 133.69 7.03Q133.42 7.57 133.09 7.81Q132.76 8.05 132.49 8.22Q132.22 8.40 132.22 8.46L132.22 8.46Q132.22 8.62 133.39 10.27Q134.57 11.91 135.00 12.38L135.00 12.38Q135.53 13.03 136.29 13.03L136.29 13.03Q136.49 13.03 136.49 13.20L136.49 13.20Q136.49 13.41 136.32 13.48Q136.15 13.55 135.45 13.55L135.45 13.55Q134.79 13.55 134.25 13.23L134.25 13.23Q133.55 12.82 131.88 10.09L131.88 10.09Q131.78 9.94 131.74 9.87L131.74 9.87Q131.07 8.78 130.70 8.78L130.70 8.78L130.41 8.78L129.56 8.78Q129.39 8.78 129.35 8.92Q129.32 9.06 129.32 9.77L129.32 9.77Q129.32 10.44 129.32 10.88Q129.32 11.31 129.32 11.43Q129.33 11.55 129.33 11.63Q129.33 11.70 129.33 11.75L129.33 11.75Q129.33 12.32 129.60 12.63Q129.86 12.95 130.19 13.00Q130.52 13.05 130.79 13.11Q131.05 13.17 131.05 13.31L131.05 13.31Q131.05 13.54 130.80 13.54L130.80 13.54Q130.79 13.54 129.84 13.49Q128.88 13.44 128.80 13.44L128.80 13.44Q128.39 13.44 127.83 13.47Q127.27 13.50 127.26 13.50L127.26 13.50Q126.97 13.50 126.97 13.27L126.97 13.27Q126.97 13.12 127.15 13.05Q127.33 12.99 127.55 12.96Q127.78 12.94 127.96 12.66Q128.14 12.38 128.14 11.86L128.14 11.86Q128.14 11.49 128.15 9.90Q128.16 8.30 128.16 7.45L128.16 7.45Q128.16 6.58 128.15 5.86Q128.14 5.14 128.14 5.08L128.14 5.08Q128.14 4.56 127.93 4.29Q127.72 4.02 127.46 3.98Q127.20 3.95 126.99 3.89Q126.78 3.84 126.78 3.70ZM129.32 5.54L129.32 5.94Q129.32 7.38 129.33 7.72Q129.35 8.06 129.43 8.12L129.43 8.12Q129.64 8.25 130.03 8.25L130.03 8.25L130.17 8.25L130.58 8.25Q131.77 8.25 132.28 7.70Q132.79 7.15 132.79 6.30L132.79 6.30Q132.79 5.43 132.11 4.72Q131.43 4.00 130.06 4.00L130.06 4.00Q129.54 4.00 129.43 4.28Q129.32 4.55 129.32 5.54L129.32 5.54ZM153.82 3.77L153.82 3.77Q153.82 3.68 153.92 3.60Q154.01 3.53 154.17 3.53L154.17 3.53Q154.25 3.53 154.45 3.54Q154.64 3.54 154.70 3.54L154.70 3.54Q154.91 3.54 155.09 3.53Q155.27 3.51 155.39 3.51L155.39 3.51Q155.51 3.51 155.68 3.59Q155.85 3.67 155.88 3.75L155.88 3.75Q155.90 3.79 156.03 3.94Q156.16 4.09 156.37 4.33Q156.58 4.56 156.74 4.79L156.74 4.79Q158.65 7.27 161.84 10.77L161.84 10.77Q161.92 10.86 162.04 10.99Q162.16 11.12 162.21 11.18Q162.26 11.24 162.32 11.30Q162.37 11.35 162.41 11.38Q162.44 11.40 162.47 11.40L162.47 11.40Q162.61 11.40 162.61 10.53L162.61 10.53L162.61 8.89Q162.61 7.95 162.60 7.31Q162.60 6.66 162.59 6.38Q162.58 6.09 162.58 6.02L162.58 6.02L162.58 5.92Q162.58 5.45 162.52 5.11Q162.46 4.77 162.37 4.59Q162.29 4.41 162.13 4.28Q161.97 4.16 161.85 4.12Q161.74 4.09 161.53 4.05Q161.32 4.00 161.24 3.98L161.24 3.98Q160.96 3.89 160.96 3.74L160.96 3.74Q160.96 3.53 161.22 3.53L161.22 3.53Q161.31 3.53 161.90 3.54Q162.48 3.54 162.55 3.54L162.55 3.54Q162.89 3.54 163.30 3.53Q163.72 3.51 163.81 3.51L163.81 3.51Q164.05 3.51 164.14 3.56Q164.23 3.61 164.23 3.75L164.23 3.75Q164.23 3.81 164.16 3.86Q164.08 3.91 164.00 3.94Q163.91 3.98 163.83 4.00L163.83 4.00L163.74 4.03Q163.28 4.28 163.28 5.61L163.28 5.61L163.28 6.15Q163.28 7.21 163.20 9.83Q163.13 12.46 163.13 13.08L163.13 13.08L163.13 13.36Q163.13 13.68 162.93 13.68L162.93 13.68Q162.81 13.68 162.71 13.58L162.71 13.58Q158.06 8.19 157.16 7.17Q156.25 6.16 156.16 6.16L156.16 6.16Q156.02 6.16 156.02 7.11L156.02 7.11Q156.02 8.44 155.96 9.97Q155.90 11.51 155.90 11.65L155.90 11.65Q155.90 12.28 156.12 12.61Q156.34 12.94 156.59 12.98Q156.84 13.02 157.06 13.07Q157.28 13.12 157.28 13.26L157.28 13.26Q157.28 13.41 157.23 13.45Q157.18 13.50 157.05 13.50L157.05 13.50Q156.95 13.50 156.61 13.48Q156.27 13.47 155.55 13.47L155.55 13.47Q155.43 13.47 155.04 13.48Q154.64 13.50 154.36 13.50L154.36 13.50Q154.06 13.50 154.06 13.27L154.06 13.27Q154.06 13.15 154.24 13.11Q154.42 13.08 154.69 12.89Q154.95 12.71 155.09 12.21L155.09 12.21Q155.18 11.89 155.30 9.60Q155.43 7.32 155.43 6.45L155.43 6.45Q155.43 5.25 155.09 4.65Q154.76 4.06 154.00 3.98L154.00 3.98Q153.82 3.96 153.82 3.77ZM171.99 3.65L171.99 3.65Q171.99 3.46 172.38 3.46L172.38 3.46Q172.44 3.46 172.56 3.47Q172.69 3.49 172.76 3.49L172.76 3.49Q172.80 3.49 174.08 3.52Q175.35 3.56 176.18 3.56L176.18 3.56Q176.47 3.56 177.62 3.53Q178.78 3.50 178.98 3.50L178.98 3.50Q179.24 3.50 179.24 3.82L179.24 3.82Q179.24 3.91 179.16 4.38Q179.07 4.84 179.07 5.25L179.07 5.25Q179.07 5.38 179.00 5.47Q178.93 5.56 178.85 5.56L178.85 5.56Q178.64 5.56 178.64 5.26L178.64 5.26Q178.64 4.89 178.40 4.58Q178.16 4.27 177.81 4.26L177.81 4.26Q176.55 4.16 175.88 4.16L175.88 4.16L175.52 4.16Q174.79 4.16 174.67 4.26Q174.55 4.37 174.52 5.01L174.52 5.01Q174.47 6.02 174.47 7.35L174.47 7.35Q174.47 8.05 174.73 8.06L174.73 8.06L175.08 8.06L175.67 8.06L176.11 8.06Q176.95 8.06 177.23 8.01Q177.51 7.95 177.73 7.80L177.73 7.80Q178.00 7.62 178.05 7.28L178.05 7.28Q178.09 7.04 178.25 7.04L178.25 7.04Q178.37 7.04 178.40 7.08Q178.43 7.13 178.43 7.27L178.43 7.27Q178.43 7.36 178.37 7.91Q178.32 8.46 178.32 8.74L178.32 8.74Q178.32 9.00 178.34 9.24Q178.36 9.48 178.36 9.59L178.36 9.59Q178.36 9.94 178.26 9.94L178.26 9.94Q178.05 9.94 177.95 9.60L177.95 9.60Q177.76 9.02 177.60 8.92L177.60 8.92Q177.31 8.72 176.26 8.72L176.26 8.72Q175.84 8.72 175.58 8.72Q175.32 8.72 175.24 8.71Q175.17 8.71 175.12 8.71Q175.07 8.71 175.03 8.71L175.03 8.71Q174.45 8.71 174.45 8.97L174.45 8.97Q174.45 9.38 174.44 9.99Q174.43 10.60 174.43 10.99L174.43 10.99L174.43 11.55Q174.43 12.56 174.76 12.66L174.76 12.66Q175.11 12.77 175.36 12.77L175.36 12.77Q176.41 12.77 177.20 12.67Q178.00 12.57 178.39 12.42Q178.79 12.28 179.06 12.10Q179.33 11.93 179.40 11.78Q179.48 11.63 179.56 11.54Q179.63 11.44 179.72 11.44L179.72 11.44Q179.89 11.44 179.89 11.68L179.89 11.68Q179.89 12.28 179.28 12.89Q178.68 13.51 178.23 13.51L178.23 13.51Q177.23 13.51 175.96 13.44Q174.69 13.37 174.38 13.37L174.38 13.37Q173.99 13.37 173.40 13.43Q172.82 13.50 172.48 13.50L172.48 13.50Q172.19 13.50 172.19 13.36L172.19 13.36Q172.19 13.23 172.19 13.19Q172.19 13.15 172.23 13.12Q172.27 13.09 172.32 13.08Q172.37 13.08 172.50 13.03Q172.63 12.99 172.79 12.92L172.79 12.92Q173.12 12.75 173.23 12.26Q173.33 11.77 173.33 10.21L173.33 10.21L173.33 8.47Q173.33 8.09 173.35 7.29Q173.38 6.50 173.38 6.05L173.38 6.05Q173.38 5.67 173.35 4.77L173.35 4.77Q173.33 4.37 173.00 4.14Q172.66 3.92 172.21 3.91L172.21 3.91Q171.99 3.91 171.99 3.65ZM187.45 3.63L187.45 3.63Q187.45 3.51 187.54 3.48Q187.64 3.44 188.03 3.44L188.03 3.44Q188.30 3.44 188.57 3.47Q188.83 3.50 189.28 3.50L189.28 3.50Q189.36 3.50 190.03 3.49Q190.69 3.47 190.75 3.47L190.75 3.47Q191.06 3.47 191.06 3.60Q191.06 3.72 190.96 3.78Q190.86 3.84 190.74 3.84Q190.62 3.85 190.53 3.92Q190.43 3.99 190.43 4.14L190.43 4.14Q190.43 4.41 191.18 5.50L191.18 5.50Q192.32 7.22 192.46 7.36L192.46 7.36Q192.54 7.45 192.58 7.45L192.58 7.45Q192.70 7.45 192.91 7.14L192.91 7.14Q193.03 6.96 193.31 6.56Q193.59 6.16 193.81 5.84Q194.03 5.53 194.26 5.19Q194.49 4.84 194.62 4.61Q194.75 4.37 194.75 4.27L194.75 4.27Q194.75 4.05 194.63 3.94Q194.52 3.84 194.38 3.82Q194.25 3.81 194.13 3.76Q194.01 3.71 194.01 3.58L194.01 3.58Q194.01 3.44 194.22 3.44L194.22 3.44Q194.53 3.44 194.82 3.47Q195.12 3.50 195.36 3.50L195.36 3.50Q196.14 3.50 196.38 3.47Q196.63 3.44 196.67 3.44L196.67 3.44Q196.90 3.44 196.90 3.58Q196.90 3.72 196.77 3.77Q196.64 3.82 196.36 3.92Q196.08 4.02 195.85 4.19L195.85 4.19Q195.58 4.37 195.10 5.01L195.10 5.01Q192.93 7.92 192.93 7.95L192.93 7.95Q192.93 8.05 193.44 8.76L193.44 8.76Q194.10 9.70 194.70 10.57L194.70 10.57Q195.99 12.45 196.52 12.88L196.52 12.88Q196.56 12.92 196.79 12.96Q197.02 13.01 197.21 13.08Q197.40 13.15 197.40 13.26L197.40 13.26Q197.40 13.33 197.38 13.36Q197.36 13.40 197.25 13.43Q197.15 13.45 196.95 13.45L196.95 13.45Q196.69 13.45 196.09 13.40Q195.50 13.36 195.45 13.36L195.45 13.36Q195.05 13.36 194.73 13.38Q194.42 13.40 194.25 13.42Q194.08 13.44 194.03 13.44L194.03 13.44Q193.84 13.44 193.84 13.26L193.84 13.26Q193.84 13.09 194.20 13.01Q194.56 12.92 194.56 12.66L194.56 12.66Q194.56 12.56 194.47 12.38Q194.38 12.19 194.17 11.86Q193.96 11.52 193.74 11.21Q193.52 10.89 193.11 10.29Q192.70 9.69 192.37 9.20L192.37 9.20Q192.23 8.96 192.14 8.96L192.14 8.96Q192.11 8.96 191.84 9.39L191.84 9.39Q191.53 9.88 190.95 10.66Q190.37 11.44 190.08 11.91Q189.78 12.39 189.78 12.67L189.78 12.67Q189.78 13.05 190.54 13.05L190.54 13.05Q190.71 13.05 190.71 13.29L190.71 13.29Q190.71 13.44 190.27 13.44L190.27 13.44Q190.13 13.44 189.61 13.42Q189.08 13.40 189.04 13.40L189.04 13.40Q188.92 13.40 188.50 13.43Q188.08 13.45 187.92 13.45Q187.77 13.45 187.70 13.44Q187.63 13.43 187.57 13.37Q187.52 13.31 187.52 13.19L187.52 13.19Q187.52 13.09 187.60 13.05Q187.68 13.02 187.80 13.01Q187.92 13.01 188.12 12.94Q188.33 12.87 188.51 12.73L188.51 12.73Q188.65 12.61 188.81 12.46Q188.97 12.31 189.15 12.09Q189.32 11.87 189.46 11.70Q189.60 11.54 189.81 11.25Q190.02 10.96 190.13 10.81Q190.23 10.67 190.46 10.34Q190.69 10.01 190.78 9.90L190.78 9.90Q190.99 9.60 191.28 9.22Q191.58 8.83 191.69 8.67Q191.81 8.50 191.81 8.46Q191.81 8.41 191.76 8.32Q191.70 8.23 191.55 8.02Q191.39 7.80 191.20 7.54Q191.02 7.28 190.65 6.78Q190.29 6.27 189.91 5.73L189.91 5.73Q188.79 4.07 188.01 3.91L188.01 3.91Q187.98 3.91 187.85 3.88Q187.73 3.86 187.66 3.84Q187.59 3.82 187.52 3.77Q187.45 3.71 187.45 3.63ZM204.96 5.32L204.96 5.32Q204.96 4.76 205.10 3.88L205.10 3.88Q205.10 3.85 205.11 3.78Q205.11 3.71 205.12 3.69Q205.13 3.67 205.13 3.62Q205.14 3.57 205.16 3.55Q205.17 3.53 205.19 3.49Q205.21 3.46 205.24 3.44Q205.27 3.43 205.31 3.42Q205.35 3.40 205.41 3.39Q205.46 3.39 205.53 3.39L205.53 3.39Q205.76 3.39 206.72 3.44Q207.68 3.50 209.48 3.50L209.48 3.50Q212.56 3.50 213.79 3.43L213.79 3.43Q213.81 3.43 213.84 3.42Q213.88 3.42 213.89 3.42L213.89 3.42Q214.05 3.42 214.10 3.50Q214.16 3.58 214.16 3.65L214.16 3.65Q214.16 3.75 214.20 4.24Q214.24 4.73 214.24 4.79L214.24 4.79Q214.24 5.14 214.20 5.23Q214.16 5.32 214.02 5.32L214.02 5.32Q213.91 5.32 213.86 5.15L213.86 5.15Q213.75 4.75 213.67 4.60Q213.58 4.45 213.30 4.34Q213.02 4.23 212.45 4.23L212.45 4.23L210.63 4.23Q210.29 4.23 210.22 4.36Q210.14 4.49 210.14 5.12L210.14 5.12L210.14 5.81Q210.14 7.69 210.12 9.11Q210.10 10.54 210.10 10.93L210.10 10.93Q210.10 11.13 210.09 11.43Q210.08 11.73 210.08 11.84L210.08 11.84Q210.08 12.45 210.28 12.64L210.28 12.64Q210.46 12.81 210.69 12.90Q210.91 12.99 211.07 13.01Q211.23 13.02 211.34 13.08Q211.46 13.13 211.46 13.26L211.46 13.26Q211.46 13.41 211.39 13.45Q211.32 13.50 211.12 13.50L211.12 13.50Q210.95 13.50 210.38 13.44Q209.80 13.38 209.57 13.38L209.57 13.38Q209.40 13.38 208.89 13.43Q208.38 13.48 208.14 13.48L208.14 13.48Q207.62 13.48 207.62 13.26L207.62 13.26Q207.62 13.12 207.70 13.07Q207.79 13.02 208.03 12.98Q208.28 12.95 208.35 12.94L208.35 12.94Q208.82 12.82 208.88 12.38L208.88 12.38Q209.02 11.14 209.02 7.08L209.02 7.08L209.01 4.58Q209.01 4.31 208.85 4.25Q208.70 4.19 207.94 4.19L207.94 4.19Q206.96 4.19 206.46 4.24Q205.97 4.30 205.88 4.35Q205.80 4.40 205.69 4.54L205.69 4.54Q205.56 4.70 205.48 4.91Q205.41 5.11 205.39 5.24Q205.37 5.38 205.30 5.47Q205.24 5.56 205.11 5.56L205.11 5.56Q204.96 5.56 204.96 5.32ZM231.78 3.70L231.78 3.70Q231.78 3.47 232.19 3.47L232.19 3.47L234.51 3.47Q234.84 3.47 235.26 3.45Q235.68 3.43 235.91 3.43L235.91 3.43Q237.17 3.43 238.07 4.07Q238.97 4.70 238.97 5.78L238.97 5.78Q238.97 6.50 238.69 7.03Q238.42 7.57 238.09 7.81Q237.76 8.05 237.49 8.22Q237.22 8.40 237.22 8.46L237.22 8.46Q237.22 8.62 238.39 10.27Q239.57 11.91 240.00 12.38L240.00 12.38Q240.53 13.03 241.29 13.03L241.29 13.03Q241.49 13.03 241.49 13.20L241.49 13.20Q241.49 13.41 241.32 13.48Q241.15 13.55 240.45 13.55L240.45 13.55Q239.79 13.55 239.25 13.23L239.25 13.23Q238.55 12.82 236.88 10.09L236.88 10.09Q236.78 9.94 236.74 9.87L236.74 9.87Q236.07 8.78 235.70 8.78L235.70 8.78L235.41 8.78L234.56 8.78Q234.39 8.78 234.35 8.92Q234.32 9.06 234.32 9.77L234.32 9.77Q234.32 10.44 234.32 10.88Q234.32 11.31 234.32 11.43Q234.33 11.55 234.33 11.63Q234.33 11.70 234.33 11.75L234.33 11.75Q234.33 12.32 234.60 12.63Q234.86 12.95 235.19 13.00Q235.52 13.05 235.79 13.11Q236.05 13.17 236.05 13.31L236.05 13.31Q236.05 13.54 235.80 13.54L235.80 13.54Q235.79 13.54 234.84 13.49Q233.88 13.44 233.80 13.44L233.80 13.44Q233.39 13.44 232.83 13.47Q232.27 13.50 232.26 13.50L232.26 13.50Q231.97 13.50 231.97 13.27L231.97 13.27Q231.97 13.12 232.15 13.05Q232.33 12.99 232.55 12.96Q232.78 12.94 232.96 12.66Q233.14 12.38 233.14 11.86L233.14 11.86Q233.14 11.49 233.15 9.90Q233.16 8.30 233.16 7.45L233.16 7.45Q233.16 6.58 233.15 5.86Q233.14 5.14 233.14 5.08L233.14 5.08Q233.14 4.56 232.93 4.29Q232.72 4.02 232.46 3.98Q232.20 3.95 231.99 3.89Q231.78 3.84 231.78 3.70ZM234.32 5.54L234.32 5.94Q234.32 7.38 234.33 7.72Q234.35 8.06 234.43 8.12L234.43 8.12Q234.64 8.25 235.03 8.25L235.03 8.25L235.17 8.25L235.58 8.25Q236.77 8.25 237.28 7.70Q237.79 7.15 237.79 6.30L237.79 6.30Q237.79 5.43 237.11 4.72Q236.43 4.00 235.06 4.00L235.06 4.00Q234.54 4.00 234.43 4.28Q234.32 4.55 234.32 5.54L234.32 5.54ZM248.84 3.65L248.84 3.65Q248.84 3.46 249.23 3.46L249.23 3.46Q249.28 3.46 249.41 3.47Q249.54 3.49 249.61 3.49L249.61 3.49Q249.65 3.49 250.92 3.52Q252.20 3.56 253.02 3.56L253.02 3.56Q253.32 3.56 254.47 3.53Q255.63 3.50 255.82 3.50L255.82 3.50Q256.09 3.50 256.09 3.82L256.09 3.82Q256.09 3.91 256.00 4.38Q255.92 4.84 255.92 5.25L255.92 5.25Q255.92 5.38 255.85 5.47Q255.78 5.56 255.70 5.56L255.70 5.56Q255.49 5.56 255.49 5.26L255.49 5.26Q255.49 4.89 255.25 4.58Q255.01 4.27 254.66 4.26L254.66 4.26Q253.40 4.16 252.73 4.16L252.73 4.16L252.36 4.16Q251.64 4.16 251.52 4.26Q251.40 4.37 251.37 5.01L251.37 5.01Q251.31 6.02 251.31 7.35L251.31 7.35Q251.31 8.05 251.58 8.06L251.58 8.06L251.93 8.06L252.52 8.06L252.95 8.06Q253.79 8.06 254.07 8.01Q254.35 7.95 254.58 7.80L254.58 7.80Q254.84 7.62 254.90 7.28L254.90 7.28Q254.94 7.04 255.09 7.04L255.09 7.04Q255.22 7.04 255.25 7.08Q255.28 7.13 255.28 7.27L255.28 7.27Q255.28 7.36 255.22 7.91Q255.16 8.46 255.16 8.74L255.16 8.74Q255.16 9.00 255.18 9.24Q255.21 9.48 255.21 9.59L255.21 9.59Q255.21 9.94 255.11 9.94L255.11 9.94Q254.90 9.94 254.80 9.60L254.80 9.60Q254.60 9.02 254.45 8.92L254.45 8.92Q254.16 8.72 253.11 8.72L253.11 8.72Q252.69 8.72 252.43 8.72Q252.17 8.72 252.09 8.71Q252.01 8.71 251.96 8.71Q251.92 8.71 251.87 8.71L251.87 8.71Q251.30 8.71 251.30 8.97L251.30 8.97Q251.30 9.38 251.29 9.99Q251.27 10.60 251.27 10.99L251.27 10.99L251.27 11.55Q251.27 12.56 251.61 12.66L251.61 12.66Q251.96 12.77 252.21 12.77L252.21 12.77Q253.26 12.77 254.05 12.67Q254.84 12.57 255.24 12.42Q255.64 12.28 255.91 12.10Q256.17 11.93 256.25 11.78Q256.33 11.63 256.40 11.54Q256.48 11.44 256.56 11.44L256.56 11.44Q256.73 11.44 256.73 11.68L256.73 11.68Q256.73 12.28 256.13 12.89Q255.53 13.51 255.08 13.51L255.08 13.51Q254.07 13.51 252.80 13.44Q251.54 13.37 251.23 13.37L251.23 13.37Q250.84 13.37 250.25 13.43Q249.66 13.50 249.33 13.50L249.33 13.50Q249.03 13.50 249.03 13.36L249.03 13.36Q249.03 13.23 249.03 13.19Q249.03 13.15 249.07 13.12Q249.12 13.09 249.16 13.08Q249.21 13.08 249.35 13.03Q249.48 12.99 249.63 12.92L249.63 12.92Q249.97 12.75 250.07 12.26Q250.18 11.77 250.18 10.21L250.18 10.21L250.18 8.47Q250.18 8.09 250.20 7.29Q250.22 6.50 250.22 6.05L250.22 6.05Q250.22 5.67 250.19 4.77L250.19 4.77Q250.18 4.37 249.84 4.14Q249.51 3.92 249.06 3.91L249.06 3.91Q248.84 3.91 248.84 3.65ZM264.29 13.33L264.29 13.33Q264.29 13.13 264.50 13.06L264.50 13.06Q264.95 12.89 265.29 12.31Q265.62 11.73 266.95 8.83L266.95 8.83Q268.32 5.87 269.37 3.63L269.37 3.63Q269.47 3.42 269.55 3.36Q269.63 3.30 269.79 3.30L269.79 3.30Q269.92 3.30 269.96 3.36Q270.00 3.42 270.14 3.82L270.14 3.82Q270.23 4.06 270.29 4.23Q270.35 4.40 270.49 4.77Q270.63 5.15 270.80 5.56L270.80 5.56Q271.25 6.66 272.35 9.22Q273.45 11.77 273.55 11.98L273.55 11.98Q273.78 12.46 274.08 12.71Q274.37 12.95 274.59 12.97Q274.81 12.99 274.95 13.04Q275.10 13.09 275.10 13.26L275.10 13.26Q275.10 13.47 274.72 13.47L274.72 13.47Q274.57 13.47 274.12 13.43Q273.67 13.38 273.46 13.38L273.46 13.38Q273.20 13.38 272.78 13.41Q272.36 13.44 272.16 13.44L272.16 13.44Q271.73 13.44 271.61 13.40Q271.49 13.37 271.49 13.24L271.49 13.24Q271.49 13.15 271.60 13.08Q271.71 13.02 271.84 13.00Q271.96 12.98 272.08 12.87Q272.19 12.77 272.19 12.59L272.19 12.59Q272.19 12.28 271.84 11.33Q271.49 10.37 271.25 9.93L271.25 9.93Q271.12 9.69 270.68 9.69L270.68 9.69Q270.61 9.69 270.06 9.70Q269.51 9.72 268.98 9.72L268.98 9.72L268.24 9.72Q267.61 9.72 267.45 9.79Q267.29 9.86 267.16 10.12L267.16 10.12Q267.08 10.30 266.88 10.70Q266.69 11.10 266.62 11.26Q266.55 11.41 266.44 11.65Q266.34 11.90 266.30 12.05Q266.27 12.19 266.27 12.31L266.27 12.31Q266.27 12.63 266.43 12.80Q266.59 12.96 266.78 12.98Q266.98 13.01 267.14 13.06Q267.30 13.12 267.30 13.26L267.30 13.26Q267.30 13.36 267.26 13.40Q267.22 13.45 267.06 13.45L267.06 13.45Q266.98 13.45 266.58 13.45Q266.18 13.44 265.90 13.44L265.90 13.44Q265.59 13.44 265.21 13.47Q264.82 13.50 264.70 13.50L264.70 13.50Q264.29 13.50 264.29 13.33ZM267.81 8.71L267.81 8.71Q267.81 8.89 267.93 8.93Q268.06 8.97 268.52 8.97L268.52 8.97L268.95 8.97L270.28 8.96Q270.83 8.96 270.83 8.74L270.83 8.74Q270.83 8.55 270.14 7.01Q269.46 5.46 269.28 5.46L269.28 5.46Q269.15 5.46 268.48 7.01Q267.81 8.55 267.81 8.71ZM282.66 3.64L282.66 3.64Q282.66 3.51 282.78 3.49Q282.90 3.47 283.37 3.47L283.37 3.47L284.59 3.47Q284.94 3.47 285.88 3.44Q286.82 3.42 287.32 3.42L287.32 3.42Q288.29 3.42 289.25 3.71Q290.22 4.00 291.03 4.56Q291.84 5.11 292.35 6.00Q292.85 6.89 292.85 7.98L292.85 7.98Q292.85 8.96 292.72 9.68Q292.59 10.40 292.28 10.93Q291.97 11.45 291.66 11.78Q291.35 12.11 290.82 12.56L290.82 12.56Q290.40 12.89 289.60 13.19Q288.81 13.48 287.97 13.48L287.97 13.48Q287.88 13.48 286.54 13.45Q285.19 13.41 284.61 13.41L284.61 13.41Q284.12 13.41 283.70 13.45Q283.28 13.48 283.21 13.48L283.21 13.48Q282.87 13.48 282.87 13.30L282.87 13.30Q282.87 13.19 282.92 13.14Q282.97 13.09 283.13 13.05Q283.29 13.01 283.36 12.98L283.36 12.98Q283.58 12.88 283.77 12.61Q283.96 12.33 283.96 12.07L283.96 12.07Q283.96 11.28 283.97 10.07Q283.98 8.85 283.98 8.27L283.98 8.27Q283.98 7.77 283.97 6.70Q283.96 5.63 283.96 4.72L283.96 4.72Q283.96 4.48 283.73 4.23Q283.50 3.99 283.22 3.98L283.22 3.98Q283.02 3.96 282.93 3.95Q282.84 3.93 282.75 3.86Q282.66 3.78 282.66 3.64ZM285.14 11.47L285.14 11.47Q285.14 11.73 285.14 11.90Q285.15 12.07 285.20 12.21Q285.25 12.35 285.28 12.40Q285.31 12.46 285.45 12.53Q285.59 12.60 285.66 12.62Q285.74 12.64 285.99 12.71Q286.24 12.78 286.41 12.82L286.41 12.82Q286.90 12.96 287.43 12.96L287.43 12.96L287.71 12.96Q288.67 12.96 289.34 12.69Q290.01 12.42 290.63 11.83L290.63 11.83Q291.66 10.84 291.66 8.61L291.66 8.61Q291.66 7.49 291.22 6.58Q290.78 5.67 290.07 5.13Q289.35 4.59 288.53 4.30Q287.70 4.02 286.86 4.02L286.86 4.02Q286.48 4.02 286.31 4.02Q286.13 4.02 285.90 4.05Q285.67 4.09 285.59 4.11Q285.52 4.13 285.40 4.25Q285.29 4.37 285.27 4.45Q285.25 4.54 285.21 4.78Q285.18 5.03 285.18 5.21Q285.18 5.39 285.18 5.80L285.18 5.80Q285.18 6.10 285.17 7.24Q285.15 8.39 285.15 8.48L285.15 8.48Q285.15 9.32 285.14 10.30Q285.14 11.28 285.14 11.47ZM301.42 12.56L301.42 12.56Q301.42 12.46 301.83 12.11L301.83 12.11Q301.88 12.07 302.00 11.91Q302.12 11.76 302.23 11.67Q302.34 11.58 302.46 11.58L302.46 11.58Q302.51 11.58 302.55 11.61Q302.60 11.63 302.68 11.72Q302.76 11.82 302.78 11.83L302.78 11.83Q302.93 12.00 303.09 12.12Q303.25 12.25 303.33 12.31Q303.41 12.36 303.46 12.42Q303.52 12.49 303.52 12.57L303.52 12.57Q303.52 12.68 303.43 12.78Q303.34 12.88 303.18 12.98Q303.03 13.09 302.99 13.13L302.99 13.13Q302.93 13.19 302.83 13.33Q302.74 13.47 302.65 13.54Q302.55 13.62 302.47 13.62Q302.39 13.62 302.19 13.46Q301.99 13.30 301.88 13.15L301.88 13.15Q301.84 13.09 301.71 12.98Q301.59 12.88 301.50 12.77Q301.42 12.67 301.42 12.56ZM301.84 4.33L301.84 4.33Q301.84 3.79 302.53 3.79L302.53 3.79Q302.86 3.79 303.02 3.89Q303.17 3.99 303.17 4.24L303.17 4.24Q303.17 4.28 303.16 4.34Q303.16 4.40 303.13 4.53Q303.11 4.66 303.10 4.79L303.10 4.79Q303.04 5.26 302.93 7.05Q302.82 8.83 302.61 10.50L302.61 10.50Q302.58 10.65 302.41 10.65Q302.25 10.65 302.25 10.53L302.25 10.53Q302.12 9.09 302.06 8.24Q302.01 7.39 302.00 7.18Q301.99 6.97 301.99 6.77Q301.98 6.57 301.97 6.34L301.97 6.34Q301.84 4.58 301.84 4.33Z"></path></g></svg>